<svg width="220" height="45" fill="none" xmlns="http://www.w3.org/2000/svg"><path d="M57.64 28.016v-5.76h4.32c.816 0 1.524-.156 2.124-.468a3.59 3.59 0 0 0 1.404-1.404c.336-.6.504-1.308.504-2.124 0-.84-.168-1.56-.504-2.16a3.353 3.353 0 0 0-1.404-1.368c-.6-.312-1.308-.468-2.124-.468h-4.32v-5.76h4.14c2.256 0 4.2.384 5.832 1.152 1.656.744 2.928 1.824 3.816 3.24.888 1.416 1.332 3.108 1.332 5.076v.576c0 1.944-.444 3.624-1.332 5.04-.888 1.416-2.16 2.508-3.816 3.276-1.632.768-3.576 1.152-5.832 1.152h-4.14ZM51.664 35V8.504h6.696V35h-6.696Zm24.251 0V15.128H81.1v8.64h-.072c0-2.784.576-4.968 1.728-6.552 1.176-1.584 2.856-2.376 5.04-2.376h.792v5.616h-1.512c-1.464 0-2.604.396-3.42 1.188-.792.792-1.188 1.932-1.188 3.42V35h-6.552Zm25.088.72c-1.752 0-3.312-.264-4.68-.792-1.368-.528-2.532-1.26-3.492-2.196a9.832 9.832 0 0 1-2.16-3.24 10.651 10.651 0 0 1-.72-3.924v-.864c0-1.44.252-2.784.756-4.032a9.933 9.933 0 0 1 2.232-3.276c.96-.936 2.124-1.668 3.492-2.196 1.368-.528 2.892-.792 4.572-.792 1.704 0 3.228.264 4.572.792 1.368.528 2.532 1.26 3.492 2.196a9.488 9.488 0 0 1 2.196 3.276c.528 1.248.792 2.592.792 4.032v.864c0 1.392-.252 2.7-.756 3.924a9.144 9.144 0 0 1-2.16 3.24c-.936.936-2.088 1.668-3.456 2.196-1.368.528-2.928.792-4.68.792Zm0-5.472c1.008 0 1.836-.216 2.484-.648a3.98 3.98 0 0 0 1.512-1.8c.336-.792.504-1.68.504-2.664 0-1.032-.18-1.932-.54-2.7-.336-.792-.84-1.416-1.512-1.872-.672-.456-1.488-.684-2.448-.684s-1.776.228-2.448.684c-.672.456-1.188 1.08-1.548 1.872-.336.768-.504 1.668-.504 2.7 0 .984.168 1.872.504 2.664a3.98 3.98 0 0 0 1.512 1.8c.672.432 1.5.648 2.484.648Zm22.811 5.4c-1.392 0-2.664-.252-3.816-.756a9.173 9.173 0 0 1-2.952-2.088c-.816-.912-1.452-1.98-1.908-3.204-.432-1.224-.648-2.556-.648-3.996v-.864c0-1.44.204-2.772.612-3.996.432-1.248 1.044-2.328 1.836-3.24a7.997 7.997 0 0 1 2.88-2.16c1.128-.528 2.388-.792 3.78-.792 1.608 0 2.976.36 4.104 1.08 1.152.696 2.028 1.716 2.628 3.06.624 1.344.96 2.976 1.008 4.896l-1.512-1.116V8.72h6.552V35h-5.184v-8.064h.72c-.048 1.776-.408 3.324-1.08 4.644-.672 1.296-1.608 2.304-2.808 3.024-1.176.696-2.58 1.044-4.212 1.044Zm1.764-5.4c.792 0 1.512-.18 2.16-.54a4.107 4.107 0 0 0 1.62-1.584c.408-.696.612-1.536.612-2.52V24.38c0-.96-.216-1.764-.648-2.412a3.996 3.996 0 0 0-1.62-1.476 4.3 4.3 0 0 0-2.124-.54c-.864 0-1.644.228-2.34.684-.672.432-1.212 1.044-1.62 1.836-.384.768-.576 1.668-.576 2.7 0 1.032.192 1.932.576 2.7a4.79 4.79 0 0 0 1.62 1.764c.696.408 1.476.612 2.34.612Zm22.212 5.4c-2.256 0-4.008-.732-5.256-2.196-1.224-1.488-1.836-3.756-1.836-6.804v-11.52h6.552v11.7c0 .888.264 1.608.792 2.16s1.236.828 2.124.828c.888 0 1.608-.276 2.16-.828.552-.552.828-1.296.828-2.232V15.128h6.552V35h-5.184v-8.352h.36c0 2.04-.264 3.732-.792 5.076-.504 1.32-1.26 2.304-2.268 2.952-1.008.648-2.256.972-3.744.972h-.288Zm25.826.072c-1.728 0-3.228-.276-4.5-.828-1.272-.576-2.34-1.344-3.204-2.304a9.96 9.96 0 0 1-1.908-3.276 11.987 11.987 0 0 1-.612-3.816v-.72c0-1.392.216-2.712.648-3.96a10.06 10.06 0 0 1 1.98-3.312c.864-.96 1.932-1.716 3.204-2.268 1.272-.552 2.736-.828 4.392-.828 1.824 0 3.432.36 4.824 1.08 1.392.72 2.496 1.716 3.312 2.988.84 1.248 1.308 2.688 1.404 4.32h-6.408c-.072-.792-.372-1.464-.9-2.016-.504-.552-1.248-.828-2.232-.828-.84 0-1.536.216-2.088.648-.528.432-.924 1.032-1.188 1.8-.264.768-.396 1.68-.396 2.736 0 .984.108 1.86.324 2.628.24.768.624 1.368 1.152 1.8.552.408 1.284.612 2.196.612.672 0 1.236-.12 1.692-.36.456-.24.816-.576 1.08-1.008.264-.456.432-.984.504-1.584h6.408c-.096 1.68-.576 3.156-1.44 4.428-.84 1.272-1.968 2.268-3.384 2.988-1.416.72-3.036 1.08-4.86 1.08Zm22.474-.432c-2.16 0-3.888-.264-5.184-.792-1.272-.528-2.196-1.404-2.772-2.628-.576-1.224-.864-2.88-.864-4.968l.036-16.956h6.048l-.036 17.136c0 .888.228 1.572.684 2.052.48.456 1.164.684 2.052.684h2.736v5.472h-2.7Zm-11.7-15.408v-4.752h14.4v4.752h-14.4Zm25.655 15.768c-2.88 0-5.148-.588-6.804-1.764-1.656-1.2-2.544-2.88-2.664-5.04h5.76c.096.6.468 1.116 1.116 1.548.648.432 1.56.648 2.736.648.84 0 1.56-.12 2.16-.36.624-.264.936-.684.936-1.26 0-.504-.24-.912-.72-1.224-.48-.336-1.356-.564-2.628-.684l-1.368-.144c-2.544-.264-4.416-.96-5.616-2.088-1.2-1.128-1.8-2.544-1.8-4.248 0-1.464.36-2.664 1.08-3.6.72-.96 1.716-1.68 2.988-2.16 1.272-.48 2.724-.72 4.356-.72 2.664 0 4.812.588 6.444 1.764 1.632 1.152 2.496 2.82 2.592 5.004h-5.76c-.096-.6-.42-1.104-.972-1.512-.552-.432-1.344-.648-2.376-.648-.744 0-1.356.132-1.836.396-.456.264-.684.636-.684 1.116 0 .504.216.876.648 1.116.456.24 1.176.42 2.16.54l1.368.144c2.544.264 4.5.972 5.868 2.124 1.392 1.128 2.088 2.616 2.088 4.464 0 1.368-.372 2.544-1.116 3.528-.72.984-1.764 1.74-3.132 2.268-1.344.528-2.952.792-4.824.792Z" fill="#DB00FF"/><path d="M0 34.414V8.773h7.938l5.866 14.401h.668l5.795-14.401h8.08v25.642h-5.69V12.53l.807.07-6.78 16.615h-5.479L4.391 12.602l.878-.07v21.883H0ZM31.814 42.037V37.26h4.004c.609 0 1.124-.082 1.545-.246.422-.14.761-.387 1.019-.738.258-.351.468-.831.632-1.44l4.742-19.67h5.34L43.72 35.96c-.375 1.499-.901 2.693-1.58 3.583-.656.89-1.546 1.522-2.67 1.897-1.1.398-2.506.597-4.215.597h-3.442Zm6.041-8.044v-4.39h4.075v4.39h-4.075Zm-2.318 0-5.901-18.827h5.655l5.585 18.827h-5.34Z" fill="#222"/></svg>