<svg width="25" height="35" viewBox="0 0 37 35" fill="none" xmlns="http://www.w3.org/2000/svg">
<path d="M19 2H4C2.89543 2 2 2.89543 2 4V31C2 32.1046 2.89543 33 4 33H19" stroke="black" stroke-width="3"/>
<path d="M36.0607 18.0607C36.6464 17.4749 36.6464 16.5251 36.0607 15.9393L26.5147 6.3934C25.9289 5.80761 24.9792 5.80761 24.3934 6.3934C23.8076 6.97918 23.8076 7.92893 24.3934 8.51472L32.8787 17L24.3934 25.4853C23.8076 26.0711 23.8076 27.0208 24.3934 27.6066C24.9792 28.1924 25.9289 28.1924 26.5147 27.6066L36.0607 18.0607ZM10 18.5H35V15.5H10V18.5Z" fill="black"/>
</svg>
