<svg width="42" height="36" viewBox="0 0 42 36" fill="none" xmlns="http://www.w3.org/2000/svg">
<g clip-path="url(#clip0_1_8)">
<path d="M40.7551 18.3265C40.7551 27.3944 31.9531 34.8163 21 34.8163C10.0469 34.8163 1.2449 27.3944 1.2449 18.3265C1.2449 9.25854 10.0469 1.83673 21 1.83673C31.9531 1.83673 40.7551 9.25854 40.7551 18.3265Z" stroke="url(#paint0_linear_1_8)" stroke-width="1.5"/>
<path d="M11.9388 11.7143L3.61224 17.5918C3.61224 17.5918 8.11435 22.6831 11.9388 24.449C15.1409 25.9275 16.5102 26.4082 20.7551 26.4082C22.2041 26.4082 23.672 26.1799 24.9771 25.8792C27.9954 25.1838 30.6518 23.4994 33.1135 21.6196L38.3878 17.5918L29.4082 11.7143C29.4082 11.7143 26.6327 10.0816 20.7551 10.0816C14.8775 10.0816 11.9388 11.7143 11.9388 11.7143Z" stroke="url(#paint1_linear_1_8)" stroke-width="1.5"/>
<path d="M27.2857 16.6939C27.2857 20.2447 24.1904 23.1429 20.3469 23.1429C16.5036 23.1429 13.4082 20.2447 13.4082 16.6939C13.4082 13.143 16.5036 10.2449 20.3469 10.2449C24.1904 10.2449 27.2857 13.143 27.2857 16.6939Z" stroke="url(#paint2_linear_1_8)" stroke-width="1.5"/>
<path d="M17.1633 16.0408C17.1106 16.7775 17.3278 17.5081 17.774 18.0965L17.9543 18.334C18.5337 19.0978 19.446 19.5352 20.4044 19.5086C21.2978 19.4838 22.1326 19.0583 22.6776 18.3499L22.838 18.1412C23.2312 17.63 23.4206 16.991 23.3691 16.3481L23.3662 16.3132C23.3146 15.6669 23.0152 15.0656 22.5306 14.6349C22.0705 14.2259 21.4762 14 20.8606 14H20.0204" stroke="#DF1AFF" stroke-width="1.5"/>
<path d="M20.1837 14.6531C20.1837 15.5933 19.3499 16.3674 18.3061 16.3674C17.2624 16.3674 16.4286 15.5933 16.4286 14.6531C16.4286 13.7128 17.2624 12.9388 18.3061 12.9388C19.3499 12.9388 20.1837 13.7128 20.1837 14.6531Z" stroke="#2C1AFF" stroke-opacity="0.5"/>
<path d="M5.53352 1.46649L36.7236 32.6565" stroke="url(#paint3_linear_1_8)" stroke-width="1.5"/>
<path d="M4.78703 33.1461L35.3177 1.30933" stroke="url(#paint4_linear_1_8)" stroke-width="1.5"/>
</g>
<defs>
<linearGradient id="paint0_linear_1_8" x1="21" y1="1.59183" x2="21" y2="35.0612" gradientUnits="userSpaceOnUse">
<stop stop-color="#DF1AFF"/>
<stop offset="1" stop-color="#2C1AFF" stop-opacity="0.5"/>
</linearGradient>
<linearGradient id="paint1_linear_1_8" x1="21" y1="10.0816" x2="21" y2="26.4082" gradientUnits="userSpaceOnUse">
<stop stop-color="#DF1AFF"/>
<stop offset="1" stop-color="#2C1AFF" stop-opacity="0.5"/>
</linearGradient>
<linearGradient id="paint2_linear_1_8" x1="20.2653" y1="22.8163" x2="20.2653" y2="10.5714" gradientUnits="userSpaceOnUse">
<stop stop-color="#DF1AFF"/>
<stop offset="1" stop-color="#2C1AFF" stop-opacity="0.5"/>
</linearGradient>
<linearGradient id="paint3_linear_1_8" x1="20.84" y1="17.35" x2="19.8227" y2="38.9935" gradientUnits="userSpaceOnUse">
<stop stop-color="#DF1AFF"/>
<stop offset="1" stop-color="#2C1AFF" stop-opacity="0.5"/>
</linearGradient>
<linearGradient id="paint4_linear_1_8" x1="20.3469" y1="17.5102" x2="42.0069" y2="18.0743" gradientUnits="userSpaceOnUse">
<stop stop-color="#DF1AFF"/>
<stop offset="1" stop-color="#2C1AFF" stop-opacity="0.5"/>
</linearGradient>
<clipPath id="clip0_1_8">
<rect width="42" height="36" fill="white"/>
</clipPath>
</defs>
</svg>
