<svg width="42" height="36" viewBox="0 0 42 36" fill="none" xmlns="http://www.w3.org/2000/svg">
<g clip-path="url(#clip0_1_2)">
<path d="M40.7551 18C40.7551 27.0679 31.9531 34.4898 21 34.4898C10.0469 34.4898 1.2449 27.0679 1.2449 18C1.2449 8.93202 10.0469 1.51021 21 1.51021C31.9531 1.51021 40.7551 8.93202 40.7551 18Z" stroke="url(#paint0_linear_1_2)" stroke-width="1.5"/>
<path d="M11.9388 11.3877L3.61224 17.2653C3.61224 17.2653 8.11435 22.3566 11.9388 24.1224C15.1409 25.601 16.5102 26.0816 20.7551 26.0816C22.2041 26.0816 23.672 25.8534 24.9771 25.5526C27.9954 24.8573 30.6518 23.1729 33.1135 21.2931L38.3878 17.2653L29.4082 11.3877C29.4082 11.3877 26.6327 9.7551 20.7551 9.7551C14.8775 9.7551 11.9388 11.3877 11.9388 11.3877Z" stroke="url(#paint1_linear_1_2)" stroke-width="1.5"/>
<path d="M27.2857 16.3673C27.2857 19.9182 24.1904 22.8163 20.3469 22.8163C16.5036 22.8163 13.4082 19.9182 13.4082 16.3673C13.4082 12.8165 16.5036 9.91837 20.3469 9.91837C24.1904 9.91837 27.2857 12.8165 27.2857 16.3673Z" stroke="url(#paint2_linear_1_2)" stroke-width="1.5"/>
<path d="M17.1633 15.7143C17.1106 16.4509 17.3278 17.1816 17.774 17.77L17.9543 18.0075C18.5337 18.7713 19.446 19.2086 20.4044 19.182C21.2978 19.1572 22.1326 18.7317 22.6776 18.0233L22.838 17.8147C23.2312 17.3035 23.4206 16.6644 23.3691 16.0215L23.3662 15.9867C23.3146 15.3404 23.0152 14.7391 22.5306 14.3084C22.0705 13.8994 21.4762 13.6735 20.8606 13.6735H20.0204" stroke="#DF1AFF" stroke-width="1.5"/>
<path d="M20.1837 14.3265C20.1837 15.2668 19.3499 16.0408 18.3061 16.0408C17.2624 16.0408 16.4286 15.2668 16.4286 14.3265C16.4286 13.3863 17.2624 12.6122 18.3061 12.6122C19.3499 12.6122 20.1837 13.3863 20.1837 14.3265Z" stroke="#2C1AFF" stroke-opacity="0.5"/>
</g>
<defs>
<linearGradient id="paint0_linear_1_2" x1="21" y1="1.26531" x2="21" y2="34.7347" gradientUnits="userSpaceOnUse">
<stop stop-color="#DF1AFF"/>
<stop offset="1" stop-color="#2C1AFF" stop-opacity="0.5"/>
</linearGradient>
<linearGradient id="paint1_linear_1_2" x1="21" y1="9.7551" x2="21" y2="26.0816" gradientUnits="userSpaceOnUse">
<stop stop-color="#DF1AFF"/>
<stop offset="1" stop-color="#2C1AFF" stop-opacity="0.5"/>
</linearGradient>
<linearGradient id="paint2_linear_1_2" x1="20.2653" y1="22.4898" x2="20.2653" y2="10.2449" gradientUnits="userSpaceOnUse">
<stop stop-color="#DF1AFF"/>
<stop offset="1" stop-color="#2C1AFF" stop-opacity="0.5"/>
</linearGradient>
<clipPath id="clip0_1_2">
<rect width="42" height="36" fill="white"/>
</clipPath>
</defs>
</svg>
