<svg width="40" height="40" viewBox="0 0 245 209" fill="none" xmlns="http://www.w3.org/2000/svg">
<path d="M243.5 106.5C243.5 162.041 189.588 207.5 122.5 207.5C55.412 207.5 1.5 162.041 1.5 106.5C1.5 50.9586 55.412 5.5 122.5 5.5C189.588 5.5 243.5 50.9586 243.5 106.5Z" stroke="url(#paint0_linear_1_20)" stroke-width="3"/>
<path d="M67 66L16 102C16 102 43.5754 133.184 67 144C86.6128 153.056 95 156 121 156C129.875 156 138.866 154.602 146.86 152.76C165.347 148.501 181.617 138.184 196.695 126.67L229 102L174 66C174 66 157 56 121 56C85 56 67 66 67 66Z" stroke="url(#paint1_linear_1_20)" stroke-width="4"/>
<path d="M161 96.5C161 118.249 142.041 136 118.5 136C94.9594 136 76 118.249 76 96.5C76 74.7509 94.9594 57 118.5 57C142.041 57 161 74.7509 161 96.5Z" stroke="url(#paint2_linear_1_20)" stroke-width="2"/>
<path d="M99 92.5V92.5C98.6777 97.012 100.008 101.487 102.741 105.091L103.845 106.546C107.394 111.224 112.982 113.903 118.852 113.74V113.74C124.324 113.588 129.437 110.982 132.775 106.643L133.758 105.365C136.166 102.234 137.326 98.3196 137.011 94.382L136.993 94.1683C136.677 90.21 134.843 86.5271 131.875 83.8889V83.8889C129.057 81.3838 125.417 80 121.646 80H116.5" stroke="#DF1AFF" stroke-width="2"/>
<path d="M117.5 84C117.5 89.7589 112.393 94.5 106 94.5C99.6069 94.5 94.5 89.7589 94.5 84C94.5 78.2411 99.6069 73.5 106 73.5C112.393 73.5 117.5 78.2411 117.5 84Z" stroke="#2C1AFF" stroke-opacity="0.5"/>
<line x1="27.7678" y1="3.23223" x2="218.807" y2="194.271" stroke="url(#paint3_linear_1_20)" stroke-width="5"/>
<line x1="23.1956" y1="197.27" x2="210.196" y2="2.26963" stroke="url(#paint4_linear_1_20)" stroke-width="5"/>
<defs>
<linearGradient id="paint0_linear_1_20" x1="122.5" y1="4" x2="122.5" y2="209" gradientUnits="userSpaceOnUse">
<stop stop-color="#DF1AFF"/>
<stop offset="1" stop-color="#2C1AFF" stop-opacity="0.5"/>
</linearGradient>
<linearGradient id="paint1_linear_1_20" x1="122.5" y1="56" x2="122.5" y2="156" gradientUnits="userSpaceOnUse">
<stop stop-color="#DF1AFF"/>
<stop offset="1" stop-color="#2C1AFF" stop-opacity="0.5"/>
</linearGradient>
<linearGradient id="paint2_linear_1_20" x1="118" y1="134" x2="118" y2="59" gradientUnits="userSpaceOnUse">
<stop stop-color="#DF1AFF"/>
<stop offset="1" stop-color="#2C1AFF" stop-opacity="0.5"/>
</linearGradient>
<linearGradient id="paint3_linear_1_20" x1="121.52" y1="100.519" x2="115.289" y2="233.085" gradientUnits="userSpaceOnUse">
<stop stop-color="#DF1AFF"/>
<stop offset="1" stop-color="#2C1AFF" stop-opacity="0.5"/>
</linearGradient>
<linearGradient id="paint4_linear_1_20" x1="118.5" y1="101.5" x2="251.167" y2="104.955" gradientUnits="userSpaceOnUse">
<stop stop-color="#DF1AFF"/>
<stop offset="1" stop-color="#2C1AFF" stop-opacity="0.5"/>
</linearGradient>
</defs>
</svg>
